Coordinates
version=1
nRows=13
nColumns=34
inDegrees=yes

Units are S.I. units (second, meters, Newtons, ...)
If the header above contains a line with 'inDegrees', this indicates whether rotational values are in degrees (yes) or radians (no).

endheader
time	pelvis_tilt	pelvis_list	pelvis_rotation	pelvis_tx	pelvis_ty	pelvis_tz	hip_flexion_r	hip_adduction_r	hip_rotation_r	knee_angle_r	ankle_angle_r	subtalar_angle_r	mtp_angle_r	hip_flexion_l	hip_adduction_l	hip_rotation_l	knee_angle_l	ankle_angle_l	subtalar_angle_l	mtp_angle_l	lumbar_extension	lumbar_bending	lumbar_rotation	arm_flex_r	arm_add_r	arm_rot_r	elbow_flex_r	pro_sup_r	arm_flex_l	arm_add_l	arm_rot_l	elbow_flex_l	pro_sup_l
      9.98333330	    -10.20366366	      3.44830046	     -5.39148248	      0.41578248	      0.95696673	      0.01975236	     15.57086768	      3.83816092	      1.85907220	     13.54235306	     13.28140448	    -10.99446053	      0.00000000	     31.54921818	     -6.18216096	      0.31724057	     30.96833553	     -2.99280607	     -2.50724511	      0.00000000	      0.00456245	      2.27392598	      2.09402162	     48.15737301	     19.56691258	     71.14082286	    138.40768991	    111.71403323	     63.50443715	     24.90555756	     72.70468572	    120.65674262	     71.77738136
     10.00000000	    -10.01768357	      3.28889622	     -5.34173021	      0.41352310	      0.95286413	      0.02096180	     15.57086752	      4.09596382	      1.98181470	     13.80330391	     13.59644224	    -11.43019328	      0.00000000	     31.97567397	     -6.31759986	      0.54072986	     31.63095547	     -2.84563070	     -2.83298826	      0.00000000	     -0.14748672	      2.43642775	      2.13484487	     48.29149133	     19.34815673	     70.12756987	    136.90279939	    111.57589609	     63.66344655	     25.16396545	     72.55286287	    120.68801136	     71.50259108
     10.01666670	     -9.72185671	      3.34238352	     -5.37447789	      0.40947809	      0.95431152	      0.02245292	     15.53775442	      4.12116906	      1.99007920	     13.99832890	     13.58468032	    -11.46782067	      0.00000000	     32.32115630	     -6.28578530	      0.46909829	     32.50551634	     -2.98956624	     -2.88989225	      0.00000000	     -0.34422198	      2.29410433	      2.09065272	     48.12514628	     19.25580691	     70.10218791	    136.80842621	    111.56246688	     63.53249946	     25.08174512	     72.56200184	    120.69890394	     71.47711302
     10.03333330	     -9.75953238	      2.91782424	     -5.20869293	      0.40715524	      0.95318030	      0.02302615	     16.07949280	      4.67597445	      2.09246792	     14.74671181	     13.69810106	    -12.33386331	      0.00000000	     33.26213940	     -6.65013672	      0.93582257	     33.73185181	     -3.13834157	     -3.67787231	      0.00000000	     -0.16114700	      2.74763051	      1.74682457	     47.63947496	     19.30427949	     69.24089502	    135.98630412	    111.25467138	     63.18105248	     25.16450918	     72.18421243	    120.70751724	     71.00381024
     10.05000000	     -9.45933441	      2.85605149	     -5.31652108	      0.40405287	      0.95169257	      0.02355133	     16.22102423	      4.83147234	      2.13038811	     15.31191536	     13.84967463	    -12.54394220	      0.00000000	     33.61739494	     -6.76746244	      0.93894581	     34.55614227	     -3.35776990	     -3.77295225	      0.00000000	     -0.34893390	      2.73266705	      1.62119469	     47.32487969	     19.48121899	     69.29552588	    135.95905705	    111.18415535	     62.92787371	     25.15675769	     72.10188077	    120.68657167	     70.90032584
     10.06666670	     -9.58667263	      2.74355399	     -5.13947944	      0.40072276	      0.95281824	      0.02356002	     16.78758846	      4.99705787	      2.24479146	     15.85715217	     13.79578244	    -13.04615307	      0.00000000	     34.54879652	     -6.73199309	      1.33651447	     35.44007807	     -3.99855378	     -4.44368647	      0.00000000	     -0.01162719	      2.91819494	      1.45149154	     47.09808426	     19.55523176	     68.70803422	    134.86109274	    110.76599628	     62.63968822	     24.98965498	     71.64433731	    120.76829647	     70.41846723
     10.08333330	     -9.40680854	      2.75856366	     -5.19801952	      0.39740698	      0.95214988	      0.02393081	     17.16128997	      5.01905319	      2.20610675	     16.66922107	     13.93835612	    -13.37892988	      0.00000000	     35.05554531	     -6.71354344	      1.29058552	     36.33672285	     -4.64580992	     -4.67007526	      0.00000000	     -0.20970269	      2.87701813	      1.19616422	     46.74313605	     19.63708572	     68.68163071	    134.74120639	    110.52789014	     62.36424762	     24.67331775	     71.38489807	    120.82904699	     70.16806560
     10.10000000	     -9.11764470	      2.77578960	     -5.18486274	      0.39768203	      0.95339662	      0.02426652	     17.18309966	      4.99211188	      2.17990419	     17.14375691	     13.78551831	    -13.37043244	      0.00000000	     35.33041368	     -6.63185885	      1.29165877	     37.11846921	     -4.87295026	     -4.75864712	      0.00000000	     -0.40723275	      2.72802698	      1.16437629	     46.52394398	     19.61393690	     68.74665443	    134.61160268	    110.49171429	     62.09116835	     24.65009179	     71.43321589	    120.87508118	     70.13222436
     10.11666670	     -9.24378804	      2.86474060	     -5.03023438	      0.39697241	      0.95150703	      0.02444861	     17.56651198	      4.89304543	      2.05179675	     17.64991813	     13.78270490	    -13.68865188	      0.00000000	     35.96335615	     -6.34235359	      1.57143131	     37.65718523	     -5.72269593	     -5.99962303	      0.00000000	      0.14677580	      2.74130034	      0.94713060	     45.91425829	     19.81677628	     68.61208662	    133.59182251	    110.08453823	     61.32811494	     24.56883796	     71.15253965	    121.37375039	     69.76969929
     10.13333330	     -9.04535656	      2.86352823	     -4.70899901	      0.39784701	      0.95707152	      0.02478735	     17.19568351	      4.79578533	      1.89758052	     17.31740424	     13.51694834	    -13.50813748	      0.00000000	     36.06675059	     -6.08603040	      1.62533958	     37.89472101	     -5.90653513	     -6.07253380	      0.00000000	      0.25328235	      2.66913095	      1.04642643	     45.57903534	     19.43899809	     68.52697224	    133.14946611	    109.94167410	     60.94455811	     24.50277805	     71.33470972	    121.46477815	     69.66898684
     10.15000000	     -8.72192376	      2.88588219	     -4.64466964	      0.39594862	      0.95864718	      0.02533610	     16.73130555	      4.71165932	      1.77413758	     17.04519891	     13.13739589	    -13.15987879	      0.00000000	     36.00622062	     -5.82833148	      1.65164377	     37.81412411	     -6.23595842	     -6.26705909	      0.00000000	      0.23562120	      2.77864718	      1.18271372	     44.87373089	     18.94677200	     68.11110559	    132.83456652	    109.71691905	     60.49247813	     24.44229960	     71.55291036	    121.74053483	     69.53629501
     10.16666670	     -8.42902908	      2.85959533	     -4.60351524	      0.39421913	      0.95775521	      0.02577374	     16.42820158	      4.73956005	      1.74506392	     16.92431798	     12.94995484	    -12.83822625	      0.00000000	     36.10291998	     -5.60021596	      1.68235543	     37.93814674	     -6.40170030	     -6.52994472	      0.00000000	      0.20750745	      2.88027801	      1.23812936	     44.19062161	     18.65805032	     68.23654716	    133.56899151	    109.52804917	     60.02393998	     24.52685521	     71.72678329	    122.06189759	     69.43711416
     10.18333330	     -8.24016555	      2.89523174	     -4.46378878	      0.39408993	      0.95859893	      0.02629749	     16.02835490	      4.65417295	      1.65973689	     16.39115474	     12.58879907	    -12.39019948	      0.00000000	     36.27091534	     -5.25048642	      1.76832897	     37.77087010	     -6.60409112	     -6.75506246	      0.00000000	      0.18291363	      2.90009906	      1.58594602	     44.00120528	     17.85073521	     67.58741737	    133.92518198	    109.25339860	     60.03754463	     24.58238284	     71.83550145	    122.15073291	     69.31011920
